<svg height="104" viewBox="0 0 353 104" width="353" xmlns="http://www.w3.org/2000/svg" xmlns:xlink="http://www.w3.org/1999/xlink"><linearGradient id="a" x1="50%" x2="27.678592%" y1="61.026269%" y2="89.377833%"><stop offset="0" stop-color="#e87fd0"/><stop offset="1" stop-color="#da3180"/></linearGradient><radialGradient id="b" cx="73.750418%" cy="72.359505%" gradientTransform="matrix(-.97965066 .16925773 -.20071022 -.82613352 1.605233 1.196553)" r="75.282365%"><stop offset="0" stop-color="#e64ab6"/><stop offset="1" stop-color="#9a377c"/></radialGradient><radialGradient id="c" cx="80.977983%" cy="50%" gradientTransform="matrix(-.340399 0 0 -1 1.085428 1)" r="233.769066%"><stop offset="0" stop-color="#fff"/><stop offset="1" stop-color="#ffb0fa"/></radialGradient><linearGradient id="d" x1="64.214739%" x2="57.69384%" y1="35.122447%" y2="65.473178%"><stop offset="0" stop-color="#a22d7b"/><stop offset="1" stop-color="#d95ab2"/></linearGradient><linearGradient id="e" x1="90.062284%" x2="8.248747%" y1="34.708882%" y2="53.474217%"><stop offset="0" stop-color="#fff1fa"/><stop offset="1" stop-color="#ff7dd7"/></linearGradient><g fill="none" fill-rule="evenodd"><g transform="translate(0 10)"><path d="m44.0803458 0c10.7339556 0 12.1016894 20.9693753 21.4716153 37.3240967 9.3731592 16.3603651 26.7457495 28.107658 21.4716153 37.2689039-5.5561541 9.6511186-23.2305002.3585191-42.9432306 0-17.7051132-.3220062-37.58024356 9.3155847-42.94323065 0-5.75632711-9.9988218 11.72433155-20.9081717 21.47161535-37.2689039 9.4449242-15.8532245 10.9049426-37.3240967 21.4716153-37.3240967z" fill="url(#a)"/><path d="m44.0998076 0c10.738814 0 12.1071669 20.9371506 21.4813337 37.266739 3.4427409 5.9971774 7.9641784 11.3735345 12.0471292 16.2292225 5.9848448 12.5176912-22.1922487 14.4085936-27.5983068 11.5661703-5.406058-2.8424232-8.7568827-7.2702948-8.7568827-10.6389647 0-3.36867 2.7463444-8.1602485 8.7568827-8.1602485 7.72629 0-1.4108733-2.9987265-27.4114898-8.9961796 9.4491992-15.8288621 10.9098783-37.266739 21.4813337-37.266739z" fill="#c43197"/><path d="m44.0998076 0c10.738814 0 12.1071669 20.9371506 21.4813337 37.266739 3.4427409 5.9971774 7.9641784 11.3735345 12.0471292 16.2292225 5.9848448 12.5176912-22.1922487 14.4085936-27.5983068 11.5661703-5.406058-2.8424232-8.5843667-6.8492002-8.5843667-10.2178701 0-3.36867 2.5738284-8.2277494 8.5843667-8.2277494 7.72629 0-1.4108733-3.1165911-27.4114898-9.3497733 9.4491992-15.8288621 10.9098783-37.266739 21.4813337-37.266739z" fill="url(#b)"/><path d="m37.7317491 60.0549927c9.0388252 2.1782565 18.3732221 8.008857 28.0031907 17.4918016-6.5266229-1.2084204-13.8410075-3.2393258-21.6203214-3.3804559-6.3417643-.1150505-13.3285211 1.128701-19.4613615 2.2375933-9.3672315-.310148-14.0508473-3.4373492-14.0508473-9.3816039 0-8.916382 13.5711017-10.2347197 27.1293395-6.9673351z" fill="#dd4191"/><path d="m37.5802444 60.4710425c9.0388252 2.1627622 18.4237236 7.8546795 28.1546954 17.0757518-6.5266229-1.1998247-13.9887751-2.7167073-21.768089-2.8568335-6.3417644-.1142321-12.9616867 1.0359307-19.0945271 2.1369352-9.513276-.5844985-14.2699141-3.8277339-14.2699141-9.7297063 0-8.8529586 13.419597-9.8702905 26.9778348-6.6261472z" fill="url(#c)"/><path d="m37.8448317 42.1372992c-6.5465474-1.6916098-16.2163775 2.5575296-29.00949033 12.7474182 4.45496593-5.167446 9.72583043-10.9336138 13.70818033-17.6065234 4.271518-4.3760741 10.4427796-6.9746687 18.5137846-7.795784 12.1065076-1.2316728 26.4411888 10.1309359 21.0257279 16.3469779-5.415461 6.2160419-14.4183813-1.154674-24.2382025-3.6920887z" fill="url(#d)"/><path d="m38.8828833 42.1200263c-7.7264287-2.2848502-17.742276 1.9700468-30.04754193 12.7646911 4.45202683-5.1742842 9.71941393-10.9480825 13.69913643-17.6298224 4.6538623-7.4448976 11.0136336-11.5784473 19.0793138-12.4006491 12.0985204-1.2333027 25.8460008 14.7388911 20.4341126 20.9631589-5.4118881 6.2242677-11.5753778-.2701031-23.1650209-3.6973785z" fill="url(#e)"/></g><path d="m147.05 76.21c.84 0 1.61-.3383333 2.31-1.015s1.05-1.4816667 1.05-2.415c0-.7466667-.256667-1.4-.77-1.96l-10.64-13.51 10.36-13.09c.513333-.56.77-1.2833333.77-2.17 0-.7933333-.303333-1.4816667-.91-2.065s-1.353333-.875-2.24-.875c-1.073333 0-1.96.49-2.66 1.47l-9.03 12.04-9.59-12.11c-.7-.9333333-1.61-1.4-2.73-1.4-.886667 0-1.668333.3266667-2.345.98s-1.015 1.4466667-1.015 2.38c0 .7.233333 1.3533333.7 1.96l10.78 13.58-10.5 13.09c-.513333.56-.77 1.26-.77 2.1 0 .7933333.338333 1.4816667 1.015 2.065s1.411667.875 2.205.875c.513333 0 1.003333-.1166667 1.47-.35s.863333-.5833333 1.19-1.05l9.24-11.83 9.38 11.83c.746667.98 1.656667 1.47 2.73 1.47zm21.98.49c2.286667 0 4.445-.4316667 6.475-1.295s3.675-2.1 4.935-3.71 1.89-3.5116667 1.89-5.705c0-2.38-.56-4.305-1.68-5.775s-2.496667-2.5783333-4.13-3.325-3.686667-1.4466667-6.16-2.1c-2.846667-.7466667-4.958333-1.5166667-6.335-2.31s-2.088333-2.0066667-2.135-3.64c0-1.7266667.618333-2.9516667 1.855-3.675s2.741667-1.085 4.515-1.085c1.726667 0 3.301667.3033333 4.725.91s2.625 1.47 3.605 2.59c.513333.56 1.19.84 2.03.84.7 0 1.283333-.21 1.75-.63.746667-.7 1.12-1.4233333 1.12-2.17 0-.7-.28-1.3766667-.84-2.03-1.4-1.7266667-3.208333-3.01-5.425-3.85s-4.445-1.26-6.685-1.26c-2.333333 0-4.491667.4433333-6.475 1.33s-3.57 2.1233333-4.76 3.71-1.785 3.43-1.785 5.53c0 2.38.595 4.305 1.785 5.775s2.648333 2.59 4.375 3.36 3.896667 1.505 6.51 2.205c2.66.7 4.678333 1.47 6.055 2.31s2.065 2.0533333 2.065 3.64c0 1.7266667-.676667 2.975-2.03 3.745s-2.916667 1.1783333-4.69 1.225c-2.24 0-4.165-.3966667-5.775-1.19s-3.115-1.9833333-4.515-3.57c-.7-.7-1.47-1.05-2.31-1.05-.606667 0-1.143333.1633333-1.61.49-.98.6533333-1.47 1.4466667-1.47 2.38 0 .6066667.21 1.2366667.63 1.89 1.726667 2.24 3.838333 3.8733333 6.335 4.9s5.215 1.54 8.155 1.54zm33.46-.7c1.4 0 2.66-.35 3.78-1.05s1.68-1.54 1.68-2.52c0-.7933333-.21-1.4466667-.63-1.96s-.933333-.77-1.54-.77c-.326667 0-.77.0816667-1.33.245s-1.003333.245-1.33.245c-2.1 0-3.15-1.1666667-3.15-3.5v-20.86h5.81c.886667 0 1.621667-.28 2.205-.84s.875-1.2833333.875-2.17-.291667-1.6216667-.875-2.205-1.318333-.875-2.205-.875h-5.81v-5.88c0-.9333333-.315-1.7266667-.945-2.38s-1.411667-.98-2.345-.98c-.98 0-1.785.3266667-2.415.98s-.945 1.4466667-.945 2.38v5.88h-4.06c-.886667 0-1.621667.28-2.205.84s-.875 1.2833333-.875 2.17.291667 1.6216667.875 2.205 1.318333.875 2.205.875h4.06v21.14c0 2.7066667.501667 4.725 1.505 6.055s2.146667 2.1583333 3.43 2.485 2.695.49 4.235.49zm27.23 14c5.273333 0 9.52-1.4466667 12.74-4.34s4.83-7.2566667 4.83-13.09v-30.24c0-.9333333-.315-1.7266667-.945-2.38s-1.435-.98-2.415-.98-1.773333.315-2.38.945-.91 1.435-.91 2.415v19.18c0 2.66-.863333 4.83-2.59 6.51s-3.92 2.52-6.58 2.52c-2.753333 0-4.806667-.735-6.16-2.205s-2.03-3.745-2.03-6.825v-19.18c0-.9333333-.315-1.7266667-.945-2.38s-1.435-.98-2.415-.98-1.773333.315-2.38.945-.91 1.435-.91 2.415v20.93c0 4.0133333 1.085 7.2566667 3.255 9.73s5.191667 3.71 9.065 3.71c2.566667 0 4.841667-.4666667 6.825-1.4s3.605-2.24 4.865-3.92v1.4c0 7.42-3.616667 11.13-10.85 11.13-1.493333 0-2.8-.1866667-3.92-.56s-2.403333-.8866667-3.85-1.54c-.326667-.14-.676667-.21-1.05-.21-.653333 0-1.236667.21-1.75.63s-.91 1.0266667-1.19 1.82c-.093333.3733333-.14.6766667-.14.91 0 1.3533333.863333 2.4266667 2.59 3.22 1.073333.56 2.45 1.0033333 4.13 1.33s3.383333.49 5.11.49zm31.29-14c.933333 0 1.726667-.3266667 2.38-.98s.98-1.4466667.98-2.38v-45.08c0-.9333333-.315-1.7266667-.945-2.38s-1.411667-.98-2.345-.98-1.726667.3266667-2.38.98-.98 1.4466667-.98 2.38v45.08c0 .9333333.315 1.7266667.945 2.38s1.411667.98 2.345.98zm29.89.7c2.333333 0 4.62-.4666667 6.86-1.4s4.036667-2.0766667 5.39-3.43c.933333-.7933333 1.4-1.68 1.4-2.66 0-.7466667-.268333-1.4-.805-1.96s-1.201667-.84-1.995-.84c-.653333 0-1.33.21-2.03.63-1.073333 1.0266667-2.31 1.8666667-3.71 2.52s-3.22.98-5.46.98c-3.266667 0-6.031667-1.0266667-8.295-3.08s-3.558333-4.7833333-3.885-8.19h24.64c.886667 0 1.656667-.2916667 2.31-.875s1.003333-1.295 1.05-2.135c-.046667-3.36-.863333-6.3933333-2.45-9.1s-3.686667-4.83-6.3-6.37-5.413333-2.31-8.4-2.31c-3.033333 0-5.868333.7933333-8.505 2.38s-4.76 3.8616667-6.37 6.825-2.415 6.405-2.415 10.325c0 3.5933333.781667 6.8133333 2.345 9.66s3.78 5.0633333 6.65 6.65 6.195 2.38 9.975 2.38zm8.4-23.03h-20.65c.606667-3.08 1.866667-5.355 3.78-6.825s4.176667-2.205 6.79-2.205c2.52 0 4.771667.7933333 6.755 2.38s3.091667 3.6166667 3.325 6.09zm29.47 23.03c2.426667 0 4.701667-.5833333 6.825-1.75s3.768333-2.59 4.935-4.27v1.96c0 .98.303333 1.785.91 2.415s1.4.945 2.38.945 1.785-.3266667 2.415-.98.945-1.4466667.945-2.38v-45.08c0-.98-.315-1.785-.945-2.415s-1.435-.945-2.415-.945-1.773333.315-2.38.945-.91 1.435-.91 2.415v16.45c-1.306667-1.6333333-3.01-2.9633333-5.11-3.99s-4.386667-1.54-6.86-1.54c-3.08 0-5.903333.8166667-8.47 2.45s-4.585 3.9083333-6.055 6.825-2.205 6.195-2.205 9.835.746667 6.9183333 2.24 9.835 3.523333 5.1916667 6.09 6.825 5.436667 2.45 8.61 2.45zm.77-6.16c-2.193333 0-4.141667-.56-5.845-1.68s-3.033333-2.66-3.99-4.62-1.435-4.1766667-1.435-6.65c0-2.4266667.478333-4.6316667 1.435-6.615s2.286667-3.535 3.99-4.655 3.651667-1.68 5.845-1.68 4.141667.56 5.845 1.68 3.033333 2.6716667 3.99 4.655 1.435 4.1883333 1.435 6.615c0 2.4733333-.478333 4.69-1.435 6.65s-2.286667 3.5-3.99 4.62-3.651667 1.68-5.845 1.68z" fill="#222" fill-rule="nonzero"/></g></svg>